<svg width="119" height="26" viewBox="0 0 119 26" fill="none" xmlns="http://www.w3.org/2000/svg">
<circle cx="21.1201" cy="13" r="2.88" fill="#FAFAFA"/>
<circle cx="21.1201" cy="22.1198" r="2.88" fill="#FAFAFA"/>
<circle cx="21.1201" cy="3.88" r="2.88" fill="#FAFAFA"/>
<circle cx="12" cy="3.88" r="2.88" fill="#FAFAFA"/>
<circle cx="12" cy="13" r="2.88" fill="#FAFAFA"/>
<circle cx="12" cy="22.1198" r="2.88" fill="#FAFAFA"/>
<circle cx="2.88" cy="3.88" r="2.88" fill="#FAFAFA"/>
<circle cx="2.88" cy="13" r="2.88" fill="#FAFAFA"/>
<circle cx="2.88" cy="22.1198" r="2.88" fill="#FAFAFA"/>
<path d="M50.6619 10.9347H47.4744C47.3835 10.4119 47.2159 9.94886 46.9716 9.54545C46.7273 9.13636 46.4233 8.78977 46.0597 8.50568C45.696 8.22159 45.2813 8.00852 44.8153 7.86648C44.3551 7.71875 43.858 7.64489 43.3239 7.64489C42.375 7.64489 41.5341 7.88352 40.8011 8.36079C40.0682 8.83239 39.4943 9.52557 39.0795 10.4403C38.6648 11.3494 38.4574 12.4602 38.4574 13.7727C38.4574 15.108 38.6648 16.233 39.0795 17.1477C39.5 18.0568 40.0739 18.7443 40.8011 19.2102C41.5341 19.6705 42.3722 19.9006 43.3153 19.9006C43.8381 19.9006 44.3267 19.8324 44.7812 19.696C45.2415 19.554 45.6534 19.3466 46.017 19.0739C46.3864 18.8011 46.696 18.4659 46.946 18.0682C47.2017 17.6705 47.3778 17.2159 47.4744 16.7045L50.6619 16.7216C50.5426 17.5511 50.2841 18.3295 49.8864 19.0568C49.4943 19.7841 48.9801 20.4261 48.3438 20.983C47.7074 21.5341 46.9631 21.9659 46.1108 22.2784C45.2585 22.5852 44.3125 22.7386 43.2727 22.7386C41.7386 22.7386 40.3693 22.3835 39.1648 21.6733C37.9602 20.9631 37.0114 19.9375 36.3182 18.5966C35.625 17.2557 35.2784 15.6477 35.2784 13.7727C35.2784 11.892 35.6278 10.2841 36.3267 8.94886C37.0256 7.60795 37.9773 6.58239 39.1818 5.87216C40.3864 5.16193 41.75 4.80682 43.2727 4.80682C44.2443 4.80682 45.1477 4.94318 45.983 5.21591C46.8182 5.48864 47.5625 5.8892 48.2159 6.41761C48.8693 6.94034 49.4063 7.58239 49.8267 8.34375C50.2528 9.09943 50.5313 9.96307 50.6619 10.9347ZM56.3264 5.04545V22.5H53.2412V5.04545H56.3264ZM65.1144 22.7557C63.8019 22.7557 62.6684 22.483 61.7139 21.9375C60.765 21.3864 60.0349 20.608 59.5235 19.6023C59.0122 18.5909 58.7565 17.4006 58.7565 16.0312C58.7565 14.6847 59.0122 13.5028 59.5235 12.4858C60.0406 11.4631 60.7622 10.6676 61.6883 10.0994C62.6144 9.52557 63.7025 9.23864 64.9525 9.23864C65.7593 9.23864 66.5207 9.36932 67.2366 9.63068C67.9582 9.88636 68.5945 10.2841 69.1457 10.8239C69.7025 11.3636 70.14 12.0511 70.4582 12.8864C70.7764 13.7159 70.9355 14.7045 70.9355 15.8523V16.7983H60.2053V14.7188H67.9781C67.9724 14.1278 67.8445 13.6023 67.5945 13.142C67.3445 12.6761 66.9951 12.3097 66.5462 12.0426C66.1031 11.7756 65.586 11.642 64.9951 11.642C64.3644 11.642 63.8105 11.7955 63.3332 12.1023C62.8559 12.4034 62.4837 12.8011 62.2167 13.2955C61.9553 13.7841 61.8218 14.321 61.8161 14.9062V16.7216C61.8161 17.483 61.9553 18.1364 62.2337 18.6818C62.5122 19.2216 62.9014 19.6364 63.4014 19.9261C63.9014 20.2102 64.4866 20.3523 65.157 20.3523C65.6059 20.3523 66.0122 20.2898 66.3758 20.1648C66.7394 20.0341 67.0548 19.8438 67.3218 19.5938C67.5889 19.3438 67.7906 19.0341 67.9269 18.6648L70.8076 18.9886C70.6258 19.75 70.2792 20.4148 69.7678 20.983C69.2622 21.5455 68.6144 21.983 67.8247 22.2955C67.0349 22.6023 66.1315 22.7557 65.1144 22.7557ZM76.4508 14.8295V22.5H73.3655V9.40909H76.3144V11.6335H76.4678C76.7689 10.9006 77.2491 10.3182 77.9082 9.88636C78.5729 9.45455 79.3939 9.23864 80.3712 9.23864C81.2746 9.23864 82.0616 9.43182 82.732 9.81818C83.4082 10.2045 83.9309 10.7642 84.3002 11.4972C84.6752 12.2301 84.8599 13.1193 84.8542 14.1648V22.5H81.7689V14.642C81.7689 13.767 81.5417 13.0824 81.0871 12.5881C80.6383 12.0937 80.0161 11.8466 79.2207 11.8466C78.6809 11.8466 78.2008 11.9659 77.7803 12.2045C77.3655 12.4375 77.0388 12.7756 76.8002 13.2188C76.5672 13.6619 76.4508 14.1989 76.4508 14.8295ZM93.5208 22.7557C92.2139 22.7557 91.0918 22.4688 90.1543 21.8949C89.2225 21.321 88.5037 20.5284 87.998 19.517C87.498 18.5 87.248 17.3295 87.248 16.0057C87.248 14.6761 87.5037 13.5028 88.0151 12.4858C88.5264 11.4631 89.248 10.6676 90.1799 10.0994C91.1174 9.52557 92.2253 9.23864 93.5037 9.23864C94.5662 9.23864 95.5066 9.43466 96.3247 9.8267C97.1486 10.2131 97.8049 10.7614 98.2935 11.4716C98.7821 12.1761 99.0605 13 99.1287 13.9432H96.1799C96.0605 13.3125 95.7764 12.7869 95.3276 12.3665C94.8844 11.9403 94.2907 11.7273 93.5463 11.7273C92.9157 11.7273 92.3617 11.8977 91.8844 12.2386C91.4071 12.5739 91.035 13.0568 90.7679 13.6875C90.5066 14.3182 90.3759 15.0739 90.3759 15.9545C90.3759 16.8466 90.5066 17.6136 90.7679 18.2557C91.0293 18.892 91.3958 19.3835 91.8674 19.7301C92.3446 20.071 92.9043 20.2415 93.5463 20.2415C94.0009 20.2415 94.4071 20.1562 94.7651 19.9858C95.1287 19.8097 95.4327 19.5568 95.677 19.2273C95.9213 18.8977 96.0889 18.4972 96.1799 18.0256H99.1287C99.0549 18.9517 98.7821 19.7727 98.3105 20.4886C97.8389 21.1989 97.1969 21.7557 96.3844 22.1591C95.5719 22.5568 94.6174 22.7557 93.5208 22.7557ZM104.567 14.8295V22.5H101.482V5.04545H104.499V11.6335H104.653C104.959 10.8949 105.434 10.3125 106.076 9.88636C106.724 9.45455 107.547 9.23864 108.547 9.23864C109.457 9.23864 110.249 9.42898 110.925 9.80966C111.601 10.1903 112.124 10.7472 112.493 11.4801C112.868 12.2131 113.056 13.108 113.056 14.1648V22.5H109.971V14.642C109.971 13.7614 109.743 13.0767 109.289 12.5881C108.84 12.0937 108.209 11.8466 107.397 11.8466C106.851 11.8466 106.363 11.9659 105.931 12.2045C105.505 12.4375 105.17 12.7756 104.925 13.2188C104.687 13.6619 104.567 14.1989 104.567 14.8295Z" fill="white"/>
</svg>
